<mxfile host="app.diagrams.net" modified="2024-05-28T05:43:16.019Z" agent="Mozilla/5.0 (Windows NT 10.0; Win64; x64) AppleWebKit/537.36 (KHTML, like Gecko) Chrome/125.0.0.0 Safari/537.36" etag="_FIbkzrTPP5HXDZ7IcI-" version="24.4.9" type="github" pages="2">
  <diagram id="9kUjLdXwX5VqoD8rsrzN" name="注意力模块">
    <mxGraphModel dx="818" dy="470" grid="1" gridSize="10" guides="1" tooltips="1" connect="1" arrows="1" fold="1" page="1" pageScale="1" pageWidth="4681" pageHeight="3300" math="1" shadow="0">
      <root>
        <mxCell id="0" />
        <mxCell id="1" parent="0" />
        <mxCell id="vYspkV4XZ7vDHXLAcBhp-70" value="" style="endArrow=none;html=1;rounded=0;exitX=1;exitY=0.5;exitDx=0;exitDy=0;fontFamily=Times New Roman;align=center;" parent="1" source="vYspkV4XZ7vDHXLAcBhp-27" edge="1">
          <mxGeometry width="50" height="50" relative="1" as="geometry">
            <mxPoint x="650" y="640" as="sourcePoint" />
            <mxPoint x="690" y="670" as="targetPoint" />
          </mxGeometry>
        </mxCell>
        <mxCell id="vYspkV4XZ7vDHXLAcBhp-74" value="" style="endArrow=none;html=1;rounded=0;exitX=1;exitY=0.5;exitDx=0;exitDy=0;entryX=0;entryY=0.5;entryDx=0;entryDy=0;fontFamily=Times New Roman;align=center;" parent="1" target="vYspkV4XZ7vDHXLAcBhp-63" edge="1">
          <mxGeometry width="50" height="50" relative="1" as="geometry">
            <mxPoint x="650" y="670" as="sourcePoint" />
            <mxPoint x="690" y="690" as="targetPoint" />
          </mxGeometry>
        </mxCell>
        <mxCell id="vYspkV4XZ7vDHXLAcBhp-75" value="" style="endArrow=none;html=1;rounded=0;exitX=1;exitY=0.5;exitDx=0;exitDy=0;entryX=0;entryY=0.25;entryDx=0;entryDy=0;fontFamily=Times New Roman;align=center;" parent="1" target="vYspkV4XZ7vDHXLAcBhp-32" edge="1">
          <mxGeometry width="50" height="50" relative="1" as="geometry">
            <mxPoint x="650" y="689.83" as="sourcePoint" />
            <mxPoint x="690" y="689.83" as="targetPoint" />
          </mxGeometry>
        </mxCell>
        <mxCell id="vYspkV4XZ7vDHXLAcBhp-82" value="" style="endArrow=none;html=1;rounded=0;exitX=1;exitY=0.5;exitDx=0;exitDy=0;fontFamily=Times New Roman;align=center;" parent="1" edge="1">
          <mxGeometry width="50" height="50" relative="1" as="geometry">
            <mxPoint x="650" y="710.09" as="sourcePoint" />
            <mxPoint x="690" y="730.09" as="targetPoint" />
          </mxGeometry>
        </mxCell>
        <mxCell id="vYspkV4XZ7vDHXLAcBhp-83" value="" style="endArrow=none;html=1;rounded=0;exitX=1;exitY=0.5;exitDx=0;exitDy=0;entryX=0;entryY=0.5;entryDx=0;entryDy=0;fontFamily=Times New Roman;align=center;" parent="1" edge="1">
          <mxGeometry width="50" height="50" relative="1" as="geometry">
            <mxPoint x="650" y="730.09" as="sourcePoint" />
            <mxPoint x="690" y="730.09" as="targetPoint" />
          </mxGeometry>
        </mxCell>
        <mxCell id="vYspkV4XZ7vDHXLAcBhp-84" value="" style="endArrow=none;html=1;rounded=0;exitX=1;exitY=0.5;exitDx=0;exitDy=0;entryX=0;entryY=0.25;entryDx=0;entryDy=0;fontFamily=Times New Roman;align=center;" parent="1" edge="1">
          <mxGeometry width="50" height="50" relative="1" as="geometry">
            <mxPoint x="650" y="749.9200000000001" as="sourcePoint" />
            <mxPoint x="690" y="730.09" as="targetPoint" />
          </mxGeometry>
        </mxCell>
        <mxCell id="vYspkV4XZ7vDHXLAcBhp-85" style="edgeStyle=orthogonalEdgeStyle;rounded=0;orthogonalLoop=1;jettySize=auto;html=1;entryX=0;entryY=0.5;entryDx=0;entryDy=0;endArrow=blockThin;endFill=1;fontFamily=Times New Roman;align=center;" parent="1" source="vYspkV4XZ7vDHXLAcBhp-4" target="vYspkV4XZ7vDHXLAcBhp-16" edge="1">
          <mxGeometry relative="1" as="geometry" />
        </mxCell>
        <mxCell id="vYspkV4XZ7vDHXLAcBhp-16" value="GAP" style="rounded=0;whiteSpace=wrap;html=1;fillColor=#dae8fc;strokeColor=#6c8ebf;fontFamily=Times New Roman;align=center;" parent="1" vertex="1">
          <mxGeometry x="560" y="680" width="40" height="40" as="geometry" />
        </mxCell>
        <mxCell id="vYspkV4XZ7vDHXLAcBhp-18" value="" style="ellipse;whiteSpace=wrap;html=1;aspect=fixed;fillColor=#cce5ff;strokeColor=none;fontFamily=Times New Roman;align=center;" parent="1" vertex="1">
          <mxGeometry x="630" y="640" width="20" height="20" as="geometry" />
        </mxCell>
        <mxCell id="vYspkV4XZ7vDHXLAcBhp-25" value="" style="ellipse;whiteSpace=wrap;html=1;aspect=fixed;fillColor=#cce5ff;strokeColor=none;fontFamily=Times New Roman;align=center;" parent="1" vertex="1">
          <mxGeometry x="630" y="640" width="20" height="20" as="geometry" />
        </mxCell>
        <mxCell id="vYspkV4XZ7vDHXLAcBhp-27" value="" style="ellipse;whiteSpace=wrap;html=1;aspect=fixed;fillColor=#cce5ff;strokeColor=none;fontFamily=Times New Roman;align=center;" parent="1" vertex="1">
          <mxGeometry x="630" y="640" width="20" height="20" as="geometry" />
        </mxCell>
        <mxCell id="vYspkV4XZ7vDHXLAcBhp-87" style="edgeStyle=orthogonalEdgeStyle;rounded=0;orthogonalLoop=1;jettySize=auto;html=1;endArrow=blockThin;endFill=1;fontFamily=Times New Roman;align=center;" parent="1" source="vYspkV4XZ7vDHXLAcBhp-32" edge="1">
          <mxGeometry relative="1" as="geometry">
            <mxPoint x="750" y="700" as="targetPoint" />
          </mxGeometry>
        </mxCell>
        <mxCell id="vYspkV4XZ7vDHXLAcBhp-38" value="" style="ellipse;whiteSpace=wrap;html=1;aspect=fixed;fillColor=#cdeb8b;strokeColor=none;fontFamily=Times New Roman;align=center;" parent="1" vertex="1">
          <mxGeometry x="690" y="740" width="20" height="20" as="geometry" />
        </mxCell>
        <mxCell id="vYspkV4XZ7vDHXLAcBhp-60" value="" style="ellipse;whiteSpace=wrap;html=1;aspect=fixed;fillColor=#cdeb8b;strokeColor=none;fontFamily=Times New Roman;align=center;" parent="1" vertex="1">
          <mxGeometry x="690" y="720" width="20" height="20" as="geometry" />
        </mxCell>
        <mxCell id="vYspkV4XZ7vDHXLAcBhp-61" value="" style="ellipse;whiteSpace=wrap;html=1;aspect=fixed;fillColor=#cdeb8b;strokeColor=none;fontFamily=Times New Roman;align=center;" parent="1" vertex="1">
          <mxGeometry x="690" y="700" width="20" height="20" as="geometry" />
        </mxCell>
        <mxCell id="vYspkV4XZ7vDHXLAcBhp-62" value="" style="ellipse;whiteSpace=wrap;html=1;aspect=fixed;fillColor=#cdeb8b;strokeColor=none;fontFamily=Times New Roman;align=center;" parent="1" vertex="1">
          <mxGeometry x="690" y="680" width="20" height="20" as="geometry" />
        </mxCell>
        <mxCell id="vYspkV4XZ7vDHXLAcBhp-63" value="" style="ellipse;whiteSpace=wrap;html=1;aspect=fixed;fillColor=#cdeb8b;strokeColor=none;fontFamily=Times New Roman;align=center;" parent="1" vertex="1">
          <mxGeometry x="690" y="660" width="20" height="20" as="geometry" />
        </mxCell>
        <mxCell id="vYspkV4XZ7vDHXLAcBhp-64" value="" style="ellipse;whiteSpace=wrap;html=1;aspect=fixed;fillColor=#cdeb8b;strokeColor=none;fontFamily=Times New Roman;align=center;" parent="1" vertex="1">
          <mxGeometry x="690" y="640" width="20" height="20" as="geometry" />
        </mxCell>
        <mxCell id="vYspkV4XZ7vDHXLAcBhp-65" value="" style="ellipse;whiteSpace=wrap;html=1;aspect=fixed;fillColor=#cce5ff;strokeColor=none;fontFamily=Times New Roman;align=center;" parent="1" vertex="1">
          <mxGeometry x="630" y="660" width="20" height="20" as="geometry" />
        </mxCell>
        <mxCell id="vYspkV4XZ7vDHXLAcBhp-66" value="" style="ellipse;whiteSpace=wrap;html=1;aspect=fixed;fillColor=#cce5ff;strokeColor=none;fontFamily=Times New Roman;align=center;" parent="1" vertex="1">
          <mxGeometry x="630" y="680" width="20" height="20" as="geometry" />
        </mxCell>
        <mxCell id="vYspkV4XZ7vDHXLAcBhp-67" value="" style="ellipse;whiteSpace=wrap;html=1;aspect=fixed;fillColor=#cce5ff;strokeColor=none;fontFamily=Times New Roman;align=center;" parent="1" vertex="1">
          <mxGeometry x="630" y="700" width="20" height="20" as="geometry" />
        </mxCell>
        <mxCell id="vYspkV4XZ7vDHXLAcBhp-68" value="" style="ellipse;whiteSpace=wrap;html=1;aspect=fixed;fillColor=#cce5ff;strokeColor=none;fontFamily=Times New Roman;align=center;" parent="1" vertex="1">
          <mxGeometry x="630" y="720" width="20" height="20" as="geometry" />
        </mxCell>
        <mxCell id="vYspkV4XZ7vDHXLAcBhp-69" value="" style="ellipse;whiteSpace=wrap;html=1;aspect=fixed;fillColor=#cce5ff;strokeColor=none;fontFamily=Times New Roman;align=center;" parent="1" vertex="1">
          <mxGeometry x="630" y="740" width="20" height="20" as="geometry" />
        </mxCell>
        <mxCell id="vYspkV4XZ7vDHXLAcBhp-89" value="" style="rounded=0;whiteSpace=wrap;html=1;fillColor=#d5e8d4;strokeColor=#82b366;fontFamily=Times New Roman;align=center;" parent="1" vertex="1">
          <mxGeometry x="821" y="640" width="10" height="120" as="geometry" />
        </mxCell>
        <mxCell id="vYspkV4XZ7vDHXLAcBhp-90" value="" style="rounded=0;whiteSpace=wrap;html=1;fillColor=#f8cecc;strokeColor=#b85450;fontFamily=Times New Roman;align=center;" parent="1" vertex="1">
          <mxGeometry x="841" y="640" width="10" height="120" as="geometry" />
        </mxCell>
        <mxCell id="vYspkV4XZ7vDHXLAcBhp-91" value="" style="rounded=0;whiteSpace=wrap;html=1;fillColor=#fff2cc;strokeColor=#d6b656;fontFamily=Times New Roman;align=center;" parent="1" vertex="1">
          <mxGeometry x="861" y="640" width="10" height="120" as="geometry" />
        </mxCell>
        <mxCell id="bzX4N_NlI1ryc0FY1Hui-31" style="edgeStyle=orthogonalEdgeStyle;rounded=0;orthogonalLoop=1;jettySize=auto;html=1;entryX=0.5;entryY=0;entryDx=0;entryDy=0;endArrow=blockThin;endFill=1;fontFamily=Times New Roman;align=center;" parent="1" source="vYspkV4XZ7vDHXLAcBhp-92" target="bzX4N_NlI1ryc0FY1Hui-27" edge="1">
          <mxGeometry relative="1" as="geometry" />
        </mxCell>
        <mxCell id="vYspkV4XZ7vDHXLAcBhp-92" value="" style="rounded=0;whiteSpace=wrap;html=1;fillColor=#e1d5e7;strokeColor=#9673a6;fontFamily=Times New Roman;align=center;" parent="1" vertex="1">
          <mxGeometry x="901" y="640" width="10" height="120" as="geometry" />
        </mxCell>
        <mxCell id="vYspkV4XZ7vDHXLAcBhp-93" value="" style="endArrow=none;dashed=1;html=1;dashPattern=1 3;strokeWidth=2;rounded=0;fontFamily=Times New Roman;align=center;" parent="1" edge="1">
          <mxGeometry width="50" height="50" relative="1" as="geometry">
            <mxPoint x="878" y="699.86" as="sourcePoint" />
            <mxPoint x="898" y="699.86" as="targetPoint" />
          </mxGeometry>
        </mxCell>
        <mxCell id="bzX4N_NlI1ryc0FY1Hui-12" style="edgeStyle=orthogonalEdgeStyle;rounded=0;orthogonalLoop=1;jettySize=auto;html=1;endArrow=blockThin;endFill=1;fontFamily=Times New Roman;align=center;" parent="1" source="vYspkV4XZ7vDHXLAcBhp-100" edge="1">
          <mxGeometry relative="1" as="geometry">
            <mxPoint x="790" y="700" as="targetPoint" />
          </mxGeometry>
        </mxCell>
        <mxCell id="vYspkV4XZ7vDHXLAcBhp-100" value="" style="rounded=0;whiteSpace=wrap;html=1;fillColor=#dae8fc;strokeColor=#6c8ebf;fontFamily=Times New Roman;align=center;" parent="1" vertex="1">
          <mxGeometry x="750" y="640" width="20" height="120" as="geometry" />
        </mxCell>
        <mxCell id="bzX4N_NlI1ryc0FY1Hui-6" value="" style="group;rotation=45;strokeWidth=0.5;fontFamily=Times New Roman;align=center;" parent="1" vertex="1" connectable="0">
          <mxGeometry x="790.0000000000001" y="695" width="10" height="10" as="geometry" />
        </mxCell>
        <mxCell id="bzX4N_NlI1ryc0FY1Hui-7" value="" style="ellipse;whiteSpace=wrap;html=1;aspect=fixed;rounded=0;strokeColor=default;strokeWidth=0.5;fontFamily=Times New Roman;fontSize=12;fontColor=default;fillColor=default;container=0;rotation=45;align=center;" parent="bzX4N_NlI1ryc0FY1Hui-6" vertex="1">
          <mxGeometry width="10" height="10" as="geometry" />
        </mxCell>
        <mxCell id="bzX4N_NlI1ryc0FY1Hui-8" value="" style="endArrow=none;html=1;rounded=0;fontFamily=Times New Roman;fontSize=12;fontColor=default;exitX=0;exitY=0.5;exitDx=0;exitDy=0;strokeWidth=0.5;align=center;" parent="bzX4N_NlI1ryc0FY1Hui-6" source="bzX4N_NlI1ryc0FY1Hui-7" edge="1">
          <mxGeometry width="50" height="50" relative="1" as="geometry">
            <mxPoint x="3" y="3" as="sourcePoint" />
            <mxPoint x="8" y="9" as="targetPoint" />
          </mxGeometry>
        </mxCell>
        <mxCell id="bzX4N_NlI1ryc0FY1Hui-9" value="" style="endArrow=none;html=1;rounded=0;fontFamily=Times New Roman;fontSize=12;fontColor=default;entryX=0.5;entryY=1;entryDx=0;entryDy=0;strokeWidth=0.5;align=center;" parent="bzX4N_NlI1ryc0FY1Hui-6" target="bzX4N_NlI1ryc0FY1Hui-7" edge="1">
          <mxGeometry width="50" height="50" relative="1" as="geometry">
            <mxPoint x="9" y="2" as="sourcePoint" />
            <mxPoint x="3" y="7" as="targetPoint" />
            <Array as="points" />
          </mxGeometry>
        </mxCell>
        <mxCell id="bzX4N_NlI1ryc0FY1Hui-17" value="$$&#xa;H\times W\times C&#xa;$$" style="text;whiteSpace=wrap;fontFamily=Times New Roman;align=center;" parent="1" vertex="1">
          <mxGeometry x="821" y="760" width="89" height="42" as="geometry" />
        </mxCell>
        <mxCell id="bzX4N_NlI1ryc0FY1Hui-19" style="edgeStyle=orthogonalEdgeStyle;rounded=0;orthogonalLoop=1;jettySize=auto;html=1;endArrow=blockThin;endFill=1;fontFamily=Times New Roman;align=center;" parent="1" edge="1">
          <mxGeometry relative="1" as="geometry">
            <mxPoint x="800" y="700" as="sourcePoint" />
            <mxPoint x="820" y="700" as="targetPoint" />
            <Array as="points">
              <mxPoint x="820" y="700" />
            </Array>
          </mxGeometry>
        </mxCell>
        <mxCell id="bzX4N_NlI1ryc0FY1Hui-20" value="$$&#xa;1\times 1\times C&#xa;$$" style="text;whiteSpace=wrap;fontFamily=Times New Roman;align=center;" parent="1" vertex="1">
          <mxGeometry x="610" y="762" width="60" height="40" as="geometry" />
        </mxCell>
        <mxCell id="bzX4N_NlI1ryc0FY1Hui-21" style="edgeStyle=orthogonalEdgeStyle;rounded=0;orthogonalLoop=1;jettySize=auto;html=1;entryX=0;entryY=0.5;entryDx=0;entryDy=0;endArrow=blockThin;endFill=1;fontFamily=Times New Roman;align=center;" parent="1" edge="1">
          <mxGeometry relative="1" as="geometry">
            <mxPoint x="600" y="700" as="sourcePoint" />
            <mxPoint x="630" y="700" as="targetPoint" />
          </mxGeometry>
        </mxCell>
        <mxCell id="bzX4N_NlI1ryc0FY1Hui-22" value="$$&#xa;k=\psi (C)&#xa;$$" style="text;whiteSpace=wrap;fontFamily=Times New Roman;align=center;" parent="1" vertex="1">
          <mxGeometry x="630" y="600" width="80" height="40" as="geometry" />
        </mxCell>
        <mxCell id="bzX4N_NlI1ryc0FY1Hui-23" value="$$&#xa;1\times 1\times C&#xa;$$" style="text;whiteSpace=wrap;fontFamily=Times New Roman;align=center;" parent="1" vertex="1">
          <mxGeometry x="730" y="762" width="60" height="40" as="geometry" />
        </mxCell>
        <mxCell id="bzX4N_NlI1ryc0FY1Hui-24" value="$$&#xa;\sigma &#xa;$$" style="text;whiteSpace=wrap;fontFamily=Times New Roman;align=center;" parent="1" vertex="1">
          <mxGeometry x="720" y="665" width="20" height="40" as="geometry" />
        </mxCell>
        <mxCell id="bzX4N_NlI1ryc0FY1Hui-27" value="&lt;font style=&quot;font-size: 10px;&quot;&gt;1x1 down&lt;/font&gt;" style="rounded=0;whiteSpace=wrap;html=1;rotation=-90;fillColor=#d5e8d4;strokeColor=#82b366;fontFamily=Times New Roman;align=center;" parent="1" vertex="1">
          <mxGeometry x="890" y="690" width="120" height="20" as="geometry" />
        </mxCell>
        <mxCell id="bzX4N_NlI1ryc0FY1Hui-28" value="&lt;font style=&quot;font-size: 10px;&quot;&gt;batch norm&lt;/font&gt;" style="rounded=0;whiteSpace=wrap;html=1;fillColor=#dae8fc;strokeColor=#6c8ebf;fontFamily=Times New Roman;align=center;" parent="1" vertex="1">
          <mxGeometry x="989" y="680" width="40" height="40" as="geometry" />
        </mxCell>
        <mxCell id="bzX4N_NlI1ryc0FY1Hui-29" value="&lt;font style=&quot;font-size: 10px;&quot;&gt;sigmoid&lt;/font&gt;" style="rounded=0;whiteSpace=wrap;html=1;fillColor=#dae8fc;strokeColor=#6c8ebf;fontFamily=Times New Roman;align=center;" parent="1" vertex="1">
          <mxGeometry x="1058" y="680" width="40" height="40" as="geometry" />
        </mxCell>
        <mxCell id="bzX4N_NlI1ryc0FY1Hui-36" value="" style="endArrow=blockThin;html=1;rounded=0;entryX=0.5;entryY=0;entryDx=0;entryDy=0;endFill=1;align=center;fontFamily=Times New Roman;" parent="1" target="j6CQ5tPFEOLgEmDj-ab5-9" edge="1">
          <mxGeometry width="50" height="50" relative="1" as="geometry">
            <mxPoint x="1098" y="695" as="sourcePoint" />
            <mxPoint x="1120" y="790.5700000000141" as="targetPoint" />
            <Array as="points">
              <mxPoint x="1120" y="695.57" />
            </Array>
          </mxGeometry>
        </mxCell>
        <mxCell id="bzX4N_NlI1ryc0FY1Hui-42" value="" style="endArrow=blockThin;html=1;rounded=0;endFill=1;align=center;" parent="1" edge="1">
          <mxGeometry width="50" height="50" relative="1" as="geometry">
            <mxPoint x="1125" y="799.95" as="sourcePoint" />
            <mxPoint x="1145" y="799.95" as="targetPoint" />
          </mxGeometry>
        </mxCell>
        <mxCell id="bzX4N_NlI1ryc0FY1Hui-43" value="" style="endArrow=blockThin;html=1;rounded=0;entryX=0;entryY=0.5;entryDx=0;entryDy=0;endFill=1;" parent="1" target="j6CQ5tPFEOLgEmDj-ab5-9" edge="1">
          <mxGeometry width="50" height="50" relative="1" as="geometry">
            <mxPoint x="390" y="799.66" as="sourcePoint" />
            <mxPoint x="1115.000000000014" y="800" as="targetPoint" />
          </mxGeometry>
        </mxCell>
        <mxCell id="bzX4N_NlI1ryc0FY1Hui-44" value="" style="endArrow=blockThin;html=1;rounded=0;entryX=0;entryY=0.5;entryDx=0;entryDy=0;endFill=1;fontFamily=Times New Roman;align=center;" parent="1" target="vYspkV4XZ7vDHXLAcBhp-1" edge="1">
          <mxGeometry width="50" height="50" relative="1" as="geometry">
            <mxPoint x="410" y="800" as="sourcePoint" />
            <mxPoint x="407" y="734" as="targetPoint" />
            <Array as="points">
              <mxPoint x="410" y="700" />
            </Array>
          </mxGeometry>
        </mxCell>
        <mxCell id="bzX4N_NlI1ryc0FY1Hui-45" style="edgeStyle=orthogonalEdgeStyle;rounded=0;orthogonalLoop=1;jettySize=auto;html=1;entryX=0.5;entryY=0;entryDx=0;entryDy=0;endArrow=blockThin;endFill=1;fontFamily=Times New Roman;align=center;" parent="1" edge="1">
          <mxGeometry relative="1" as="geometry">
            <mxPoint x="960" y="699.67" as="sourcePoint" />
            <mxPoint x="989" y="699.67" as="targetPoint" />
          </mxGeometry>
        </mxCell>
        <mxCell id="bzX4N_NlI1ryc0FY1Hui-46" style="edgeStyle=orthogonalEdgeStyle;rounded=0;orthogonalLoop=1;jettySize=auto;html=1;entryX=0.5;entryY=0;entryDx=0;entryDy=0;endArrow=blockThin;endFill=1;fontFamily=Times New Roman;align=center;" parent="1" edge="1">
          <mxGeometry relative="1" as="geometry">
            <mxPoint x="1029" y="700" as="sourcePoint" />
            <mxPoint x="1058" y="700" as="targetPoint" />
          </mxGeometry>
        </mxCell>
        <mxCell id="vYspkV4XZ7vDHXLAcBhp-17" value="" style="rounded=0;whiteSpace=wrap;html=1;strokeWidth=0.5;fillColor=none;fontColor=#333333;strokeColor=#666666;movable=1;resizable=1;rotatable=1;deletable=1;editable=1;locked=0;connectable=1;fontFamily=Times New Roman;align=center;" parent="1" vertex="1">
          <mxGeometry x="630" y="640" width="20" height="120" as="geometry" />
        </mxCell>
        <mxCell id="vYspkV4XZ7vDHXLAcBhp-32" value="" style="rounded=0;whiteSpace=wrap;html=1;strokeWidth=0.5;movable=1;resizable=1;rotatable=1;deletable=1;editable=1;locked=0;connectable=1;fillColor=none;fontColor=#333333;strokeColor=#666666;fontFamily=Times New Roman;align=center;" parent="1" vertex="1">
          <mxGeometry x="690" y="640" width="20" height="120" as="geometry" />
        </mxCell>
        <mxCell id="j6CQ5tPFEOLgEmDj-ab5-9" value="" style="shape=sumEllipse;perimeter=ellipsePerimeter;whiteSpace=wrap;html=1;backgroundOutline=1;align=center;fontFamily=Times New Roman;" parent="1" vertex="1">
          <mxGeometry x="1115" y="795" width="10" height="10" as="geometry" />
        </mxCell>
        <mxCell id="pwL7uk82Mc4IEPB82HML-1" value="" style="group;fontFamily=Times New Roman;align=center;" parent="1" vertex="1" connectable="0">
          <mxGeometry x="440" y="640" width="90" height="162" as="geometry" />
        </mxCell>
        <mxCell id="vYspkV4XZ7vDHXLAcBhp-1" value="" style="rounded=0;whiteSpace=wrap;html=1;fillColor=#d5e8d4;strokeColor=#82b366;fontFamily=Times New Roman;align=center;" parent="pwL7uk82Mc4IEPB82HML-1" vertex="1">
          <mxGeometry width="10" height="120" as="geometry" />
        </mxCell>
        <mxCell id="vYspkV4XZ7vDHXLAcBhp-2" value="" style="rounded=0;whiteSpace=wrap;html=1;fillColor=#f8cecc;strokeColor=#b85450;fontFamily=Times New Roman;align=center;" parent="pwL7uk82Mc4IEPB82HML-1" vertex="1">
          <mxGeometry x="20" width="10" height="120" as="geometry" />
        </mxCell>
        <mxCell id="vYspkV4XZ7vDHXLAcBhp-3" value="" style="rounded=0;whiteSpace=wrap;html=1;fillColor=#fff2cc;strokeColor=#d6b656;fontFamily=Times New Roman;align=center;" parent="pwL7uk82Mc4IEPB82HML-1" vertex="1">
          <mxGeometry x="40" width="10" height="120" as="geometry" />
        </mxCell>
        <mxCell id="vYspkV4XZ7vDHXLAcBhp-4" value="" style="rounded=0;whiteSpace=wrap;html=1;fillColor=#e1d5e7;strokeColor=#9673a6;fontFamily=Times New Roman;align=center;" parent="pwL7uk82Mc4IEPB82HML-1" vertex="1">
          <mxGeometry x="80" width="10" height="120" as="geometry" />
        </mxCell>
        <mxCell id="vYspkV4XZ7vDHXLAcBhp-9" value="" style="endArrow=none;dashed=1;html=1;dashPattern=1 3;strokeWidth=2;rounded=0;fontFamily=Times New Roman;align=center;" parent="pwL7uk82Mc4IEPB82HML-1" edge="1">
          <mxGeometry width="50" height="50" relative="1" as="geometry">
            <mxPoint x="57" y="59.860000000000014" as="sourcePoint" />
            <mxPoint x="77" y="59.860000000000014" as="targetPoint" />
          </mxGeometry>
        </mxCell>
        <mxCell id="vYspkV4XZ7vDHXLAcBhp-14" value="$$&#xa;H\times W\times C&#xa;$$" style="text;whiteSpace=wrap;fontFamily=Times New Roman;align=center;" parent="pwL7uk82Mc4IEPB82HML-1" vertex="1">
          <mxGeometry y="122" width="90" height="40" as="geometry" />
        </mxCell>
      </root>
    </mxGraphModel>
  </diagram>
  <diagram name="注意力模块v2" id="BP5Sxoe2Q9ZK_DR8P35f">
    <mxGraphModel dx="698" dy="385" grid="1" gridSize="10" guides="1" tooltips="1" connect="1" arrows="1" fold="1" page="1" pageScale="1" pageWidth="4681" pageHeight="3300" math="1" shadow="0">
      <root>
        <mxCell id="5jRHnxl2lbzpMj3RXv72-0" />
        <mxCell id="5jRHnxl2lbzpMj3RXv72-1" parent="5jRHnxl2lbzpMj3RXv72-0" />
        <mxCell id="5jRHnxl2lbzpMj3RXv72-8" style="edgeStyle=orthogonalEdgeStyle;rounded=0;orthogonalLoop=1;jettySize=auto;html=1;entryX=0;entryY=0.5;entryDx=0;entryDy=0;endArrow=blockThin;endFill=1;fontFamily=Times New Roman;" parent="5jRHnxl2lbzpMj3RXv72-1" source="5jRHnxl2lbzpMj3RXv72-60" edge="1">
          <mxGeometry relative="1" as="geometry">
            <mxPoint x="560" y="770" as="targetPoint" />
          </mxGeometry>
        </mxCell>
        <mxCell id="LbHlUrn35ubP1hXEGvvB-30" style="edgeStyle=orthogonalEdgeStyle;rounded=0;orthogonalLoop=1;jettySize=auto;html=1;entryX=0;entryY=0.5;entryDx=0;entryDy=0;endArrow=blockThin;endFill=1;fontFamily=Times New Roman;" parent="5jRHnxl2lbzpMj3RXv72-1" source="5jRHnxl2lbzpMj3RXv72-9" target="LbHlUrn35ubP1hXEGvvB-29" edge="1">
          <mxGeometry relative="1" as="geometry">
            <Array as="points">
              <mxPoint x="580" y="700" />
            </Array>
          </mxGeometry>
        </mxCell>
        <mxCell id="5jRHnxl2lbzpMj3RXv72-9" value="GAP" style="rounded=0;whiteSpace=wrap;html=1;fillColor=#dae8fc;strokeColor=#6c8ebf;fontFamily=Times New Roman;" parent="5jRHnxl2lbzpMj3RXv72-1" vertex="1">
          <mxGeometry x="560" y="750" width="40" height="40" as="geometry" />
        </mxCell>
        <mxCell id="5jRHnxl2lbzpMj3RXv72-45" value="&lt;font style=&quot;font-size: 10px;&quot;&gt;batch norm&lt;/font&gt;" style="rounded=0;whiteSpace=wrap;html=1;fillColor=#dae8fc;strokeColor=#6c8ebf;fontFamily=Times New Roman;" parent="5jRHnxl2lbzpMj3RXv72-1" vertex="1">
          <mxGeometry x="679" y="680" width="40" height="40" as="geometry" />
        </mxCell>
        <mxCell id="LbHlUrn35ubP1hXEGvvB-27" style="edgeStyle=orthogonalEdgeStyle;rounded=0;orthogonalLoop=1;jettySize=auto;html=1;entryX=0.5;entryY=0;entryDx=0;entryDy=0;endArrow=blockThin;endFill=1;fontFamily=Times New Roman;" parent="5jRHnxl2lbzpMj3RXv72-1" source="5jRHnxl2lbzpMj3RXv72-46" target="LbHlUrn35ubP1hXEGvvB-11" edge="1">
          <mxGeometry relative="1" as="geometry" />
        </mxCell>
        <mxCell id="5jRHnxl2lbzpMj3RXv72-46" value="&lt;font style=&quot;font-size: 10px;&quot;&gt;sigmoid&lt;/font&gt;" style="rounded=0;whiteSpace=wrap;html=1;fillColor=#dae8fc;strokeColor=#6c8ebf;fontFamily=Times New Roman;" parent="5jRHnxl2lbzpMj3RXv72-1" vertex="1">
          <mxGeometry x="748" y="680" width="40" height="40" as="geometry" />
        </mxCell>
        <mxCell id="5jRHnxl2lbzpMj3RXv72-51" style="edgeStyle=orthogonalEdgeStyle;rounded=0;orthogonalLoop=1;jettySize=auto;html=1;entryX=0.5;entryY=0;entryDx=0;entryDy=0;endArrow=blockThin;endFill=1;fontFamily=Times New Roman;" parent="5jRHnxl2lbzpMj3RXv72-1" edge="1">
          <mxGeometry relative="1" as="geometry">
            <mxPoint x="650" y="699.76" as="sourcePoint" />
            <mxPoint x="679" y="699.76" as="targetPoint" />
          </mxGeometry>
        </mxCell>
        <mxCell id="5jRHnxl2lbzpMj3RXv72-52" style="edgeStyle=orthogonalEdgeStyle;rounded=0;orthogonalLoop=1;jettySize=auto;html=1;entryX=0.5;entryY=0;entryDx=0;entryDy=0;endArrow=blockThin;endFill=1;fontFamily=Times New Roman;" parent="5jRHnxl2lbzpMj3RXv72-1" edge="1">
          <mxGeometry relative="1" as="geometry">
            <mxPoint x="719" y="700" as="sourcePoint" />
            <mxPoint x="748" y="700" as="targetPoint" />
          </mxGeometry>
        </mxCell>
        <mxCell id="5jRHnxl2lbzpMj3RXv72-56" value="" style="group;align=center;fontFamily=Times New Roman;" parent="5jRHnxl2lbzpMj3RXv72-1" vertex="1" connectable="0">
          <mxGeometry x="440" y="710" width="90" height="162" as="geometry" />
        </mxCell>
        <mxCell id="5jRHnxl2lbzpMj3RXv72-57" value="" style="rounded=0;whiteSpace=wrap;html=1;fillColor=#d5e8d4;strokeColor=#82b366;fontFamily=Times New Roman;" parent="5jRHnxl2lbzpMj3RXv72-56" vertex="1">
          <mxGeometry width="10" height="120" as="geometry" />
        </mxCell>
        <mxCell id="5jRHnxl2lbzpMj3RXv72-58" value="" style="rounded=0;whiteSpace=wrap;html=1;fillColor=#f8cecc;strokeColor=#b85450;fontFamily=Times New Roman;" parent="5jRHnxl2lbzpMj3RXv72-56" vertex="1">
          <mxGeometry x="20" width="10" height="120" as="geometry" />
        </mxCell>
        <mxCell id="5jRHnxl2lbzpMj3RXv72-59" value="" style="rounded=0;whiteSpace=wrap;html=1;fillColor=#fff2cc;strokeColor=#d6b656;fontFamily=Times New Roman;" parent="5jRHnxl2lbzpMj3RXv72-56" vertex="1">
          <mxGeometry x="40" width="10" height="120" as="geometry" />
        </mxCell>
        <mxCell id="5jRHnxl2lbzpMj3RXv72-60" value="" style="rounded=0;whiteSpace=wrap;html=1;fillColor=#e1d5e7;strokeColor=#9673a6;fontFamily=Times New Roman;" parent="5jRHnxl2lbzpMj3RXv72-56" vertex="1">
          <mxGeometry x="80" width="10" height="120" as="geometry" />
        </mxCell>
        <mxCell id="5jRHnxl2lbzpMj3RXv72-61" value="" style="endArrow=none;dashed=1;html=1;dashPattern=1 3;strokeWidth=2;rounded=0;fontFamily=Times New Roman;" parent="5jRHnxl2lbzpMj3RXv72-56" edge="1">
          <mxGeometry width="50" height="50" relative="1" as="geometry">
            <mxPoint x="57" y="59.860000000000014" as="sourcePoint" />
            <mxPoint x="77" y="59.860000000000014" as="targetPoint" />
          </mxGeometry>
        </mxCell>
        <mxCell id="5jRHnxl2lbzpMj3RXv72-62" value="$$&#xa;H\times W\times C&#xa;$$" style="text;whiteSpace=wrap;align=center;fontFamily=Times New Roman;" parent="5jRHnxl2lbzpMj3RXv72-56" vertex="1">
          <mxGeometry y="122" width="90" height="40" as="geometry" />
        </mxCell>
        <mxCell id="LbHlUrn35ubP1hXEGvvB-6" style="edgeStyle=orthogonalEdgeStyle;rounded=0;orthogonalLoop=1;jettySize=auto;html=1;entryX=0;entryY=0.5;entryDx=0;entryDy=0;endArrow=blockThin;endFill=1;exitX=0.427;exitY=1.051;exitDx=0;exitDy=0;exitPerimeter=0;fontFamily=Times New Roman;" parent="5jRHnxl2lbzpMj3RXv72-1" source="5jRHnxl2lbzpMj3RXv72-9" edge="1">
          <mxGeometry relative="1" as="geometry">
            <mxPoint x="600" y="838" as="sourcePoint" />
            <mxPoint x="630" y="838" as="targetPoint" />
            <Array as="points">
              <mxPoint x="577" y="838" />
            </Array>
          </mxGeometry>
        </mxCell>
        <mxCell id="5jRHnxl2lbzpMj3RXv72-2" value="" style="endArrow=none;html=1;rounded=0;exitX=1;exitY=0.5;exitDx=0;exitDy=0;fontFamily=Times New Roman;" parent="5jRHnxl2lbzpMj3RXv72-1" source="5jRHnxl2lbzpMj3RXv72-12" edge="1">
          <mxGeometry width="50" height="50" relative="1" as="geometry">
            <mxPoint x="650" y="778" as="sourcePoint" />
            <mxPoint x="690" y="808" as="targetPoint" />
          </mxGeometry>
        </mxCell>
        <mxCell id="5jRHnxl2lbzpMj3RXv72-3" value="" style="endArrow=none;html=1;rounded=0;exitX=1;exitY=0.5;exitDx=0;exitDy=0;entryX=0;entryY=0.5;entryDx=0;entryDy=0;fontFamily=Times New Roman;" parent="5jRHnxl2lbzpMj3RXv72-1" target="5jRHnxl2lbzpMj3RXv72-18" edge="1">
          <mxGeometry width="50" height="50" relative="1" as="geometry">
            <mxPoint x="650" y="808" as="sourcePoint" />
            <mxPoint x="690" y="828" as="targetPoint" />
          </mxGeometry>
        </mxCell>
        <mxCell id="5jRHnxl2lbzpMj3RXv72-4" value="" style="endArrow=none;html=1;rounded=0;exitX=1;exitY=0.5;exitDx=0;exitDy=0;entryX=0;entryY=0.25;entryDx=0;entryDy=0;fontFamily=Times New Roman;" parent="5jRHnxl2lbzpMj3RXv72-1" target="5jRHnxl2lbzpMj3RXv72-54" edge="1">
          <mxGeometry width="50" height="50" relative="1" as="geometry">
            <mxPoint x="650" y="827.83" as="sourcePoint" />
            <mxPoint x="690" y="827.83" as="targetPoint" />
          </mxGeometry>
        </mxCell>
        <mxCell id="5jRHnxl2lbzpMj3RXv72-5" value="" style="endArrow=none;html=1;rounded=0;exitX=1;exitY=0.5;exitDx=0;exitDy=0;fontFamily=Times New Roman;" parent="5jRHnxl2lbzpMj3RXv72-1" edge="1">
          <mxGeometry width="50" height="50" relative="1" as="geometry">
            <mxPoint x="650" y="848.09" as="sourcePoint" />
            <mxPoint x="690" y="868.09" as="targetPoint" />
          </mxGeometry>
        </mxCell>
        <mxCell id="5jRHnxl2lbzpMj3RXv72-6" value="" style="endArrow=none;html=1;rounded=0;exitX=1;exitY=0.5;exitDx=0;exitDy=0;entryX=0;entryY=0.5;entryDx=0;entryDy=0;fontFamily=Times New Roman;" parent="5jRHnxl2lbzpMj3RXv72-1" edge="1">
          <mxGeometry width="50" height="50" relative="1" as="geometry">
            <mxPoint x="650" y="868.09" as="sourcePoint" />
            <mxPoint x="690" y="868.09" as="targetPoint" />
          </mxGeometry>
        </mxCell>
        <mxCell id="5jRHnxl2lbzpMj3RXv72-7" value="" style="endArrow=none;html=1;rounded=0;exitX=1;exitY=0.5;exitDx=0;exitDy=0;entryX=0;entryY=0.25;entryDx=0;entryDy=0;fontFamily=Times New Roman;" parent="5jRHnxl2lbzpMj3RXv72-1" edge="1">
          <mxGeometry width="50" height="50" relative="1" as="geometry">
            <mxPoint x="650" y="887.9200000000001" as="sourcePoint" />
            <mxPoint x="690" y="868.09" as="targetPoint" />
          </mxGeometry>
        </mxCell>
        <mxCell id="5jRHnxl2lbzpMj3RXv72-10" value="" style="ellipse;whiteSpace=wrap;html=1;aspect=fixed;fillColor=#cce5ff;strokeColor=none;fontFamily=Times New Roman;" parent="5jRHnxl2lbzpMj3RXv72-1" vertex="1">
          <mxGeometry x="630" y="778" width="20" height="20" as="geometry" />
        </mxCell>
        <mxCell id="5jRHnxl2lbzpMj3RXv72-11" value="" style="ellipse;whiteSpace=wrap;html=1;aspect=fixed;fillColor=#cce5ff;strokeColor=none;fontFamily=Times New Roman;" parent="5jRHnxl2lbzpMj3RXv72-1" vertex="1">
          <mxGeometry x="630" y="778" width="20" height="20" as="geometry" />
        </mxCell>
        <mxCell id="5jRHnxl2lbzpMj3RXv72-12" value="" style="ellipse;whiteSpace=wrap;html=1;aspect=fixed;fillColor=#cce5ff;strokeColor=none;fontFamily=Times New Roman;" parent="5jRHnxl2lbzpMj3RXv72-1" vertex="1">
          <mxGeometry x="630" y="778" width="20" height="20" as="geometry" />
        </mxCell>
        <mxCell id="5jRHnxl2lbzpMj3RXv72-13" style="edgeStyle=orthogonalEdgeStyle;rounded=0;orthogonalLoop=1;jettySize=auto;html=1;endArrow=blockThin;endFill=1;fontFamily=Times New Roman;" parent="5jRHnxl2lbzpMj3RXv72-1" source="5jRHnxl2lbzpMj3RXv72-54" edge="1">
          <mxGeometry relative="1" as="geometry">
            <mxPoint x="750" y="838" as="targetPoint" />
          </mxGeometry>
        </mxCell>
        <mxCell id="5jRHnxl2lbzpMj3RXv72-14" value="" style="ellipse;whiteSpace=wrap;html=1;aspect=fixed;fillColor=#cdeb8b;strokeColor=none;fontFamily=Times New Roman;" parent="5jRHnxl2lbzpMj3RXv72-1" vertex="1">
          <mxGeometry x="690" y="878" width="20" height="20" as="geometry" />
        </mxCell>
        <mxCell id="5jRHnxl2lbzpMj3RXv72-15" value="" style="ellipse;whiteSpace=wrap;html=1;aspect=fixed;fillColor=#cdeb8b;strokeColor=none;fontFamily=Times New Roman;" parent="5jRHnxl2lbzpMj3RXv72-1" vertex="1">
          <mxGeometry x="690" y="858" width="20" height="20" as="geometry" />
        </mxCell>
        <mxCell id="5jRHnxl2lbzpMj3RXv72-16" value="" style="ellipse;whiteSpace=wrap;html=1;aspect=fixed;fillColor=#cdeb8b;strokeColor=none;fontFamily=Times New Roman;" parent="5jRHnxl2lbzpMj3RXv72-1" vertex="1">
          <mxGeometry x="690" y="838" width="20" height="20" as="geometry" />
        </mxCell>
        <mxCell id="5jRHnxl2lbzpMj3RXv72-17" value="" style="ellipse;whiteSpace=wrap;html=1;aspect=fixed;fillColor=#cdeb8b;strokeColor=none;fontFamily=Times New Roman;" parent="5jRHnxl2lbzpMj3RXv72-1" vertex="1">
          <mxGeometry x="690" y="818" width="20" height="20" as="geometry" />
        </mxCell>
        <mxCell id="5jRHnxl2lbzpMj3RXv72-18" value="" style="ellipse;whiteSpace=wrap;html=1;aspect=fixed;fillColor=#cdeb8b;strokeColor=none;fontFamily=Times New Roman;" parent="5jRHnxl2lbzpMj3RXv72-1" vertex="1">
          <mxGeometry x="690" y="798" width="20" height="20" as="geometry" />
        </mxCell>
        <mxCell id="5jRHnxl2lbzpMj3RXv72-19" value="" style="ellipse;whiteSpace=wrap;html=1;aspect=fixed;fillColor=#cdeb8b;strokeColor=none;fontFamily=Times New Roman;" parent="5jRHnxl2lbzpMj3RXv72-1" vertex="1">
          <mxGeometry x="690" y="778" width="20" height="20" as="geometry" />
        </mxCell>
        <mxCell id="5jRHnxl2lbzpMj3RXv72-20" value="" style="ellipse;whiteSpace=wrap;html=1;aspect=fixed;fillColor=#cce5ff;strokeColor=none;fontFamily=Times New Roman;" parent="5jRHnxl2lbzpMj3RXv72-1" vertex="1">
          <mxGeometry x="630" y="798" width="20" height="20" as="geometry" />
        </mxCell>
        <mxCell id="5jRHnxl2lbzpMj3RXv72-21" value="" style="ellipse;whiteSpace=wrap;html=1;aspect=fixed;fillColor=#cce5ff;strokeColor=none;fontFamily=Times New Roman;" parent="5jRHnxl2lbzpMj3RXv72-1" vertex="1">
          <mxGeometry x="630" y="818" width="20" height="20" as="geometry" />
        </mxCell>
        <mxCell id="5jRHnxl2lbzpMj3RXv72-22" value="" style="ellipse;whiteSpace=wrap;html=1;aspect=fixed;fillColor=#cce5ff;strokeColor=none;fontFamily=Times New Roman;" parent="5jRHnxl2lbzpMj3RXv72-1" vertex="1">
          <mxGeometry x="630" y="838" width="20" height="20" as="geometry" />
        </mxCell>
        <mxCell id="5jRHnxl2lbzpMj3RXv72-23" value="" style="ellipse;whiteSpace=wrap;html=1;aspect=fixed;fillColor=#cce5ff;strokeColor=none;fontFamily=Times New Roman;" parent="5jRHnxl2lbzpMj3RXv72-1" vertex="1">
          <mxGeometry x="630" y="858" width="20" height="20" as="geometry" />
        </mxCell>
        <mxCell id="5jRHnxl2lbzpMj3RXv72-24" value="" style="ellipse;whiteSpace=wrap;html=1;aspect=fixed;fillColor=#cce5ff;strokeColor=none;fontFamily=Times New Roman;" parent="5jRHnxl2lbzpMj3RXv72-1" vertex="1">
          <mxGeometry x="630" y="878" width="20" height="20" as="geometry" />
        </mxCell>
        <mxCell id="LbHlUrn35ubP1hXEGvvB-10" style="edgeStyle=orthogonalEdgeStyle;rounded=0;orthogonalLoop=1;jettySize=auto;html=1;entryX=0;entryY=0.5;entryDx=0;entryDy=0;endArrow=blockThin;endFill=1;endSize=6;fontFamily=Times New Roman;" parent="5jRHnxl2lbzpMj3RXv72-1" source="5jRHnxl2lbzpMj3RXv72-32" target="LbHlUrn35ubP1hXEGvvB-9" edge="1">
          <mxGeometry relative="1" as="geometry" />
        </mxCell>
        <mxCell id="5jRHnxl2lbzpMj3RXv72-32" value="" style="rounded=0;whiteSpace=wrap;html=1;fillColor=#dae8fc;strokeColor=#6c8ebf;fontFamily=Times New Roman;" parent="5jRHnxl2lbzpMj3RXv72-1" vertex="1">
          <mxGeometry x="750" y="778" width="20" height="120" as="geometry" />
        </mxCell>
        <mxCell id="5jRHnxl2lbzpMj3RXv72-39" value="$$&#xa;1\times 1\times C&#xa;$$" style="text;whiteSpace=wrap;align=center;fontFamily=Times New Roman;" parent="5jRHnxl2lbzpMj3RXv72-1" vertex="1">
          <mxGeometry x="609" y="896" width="70" height="28" as="geometry" />
        </mxCell>
        <mxCell id="5jRHnxl2lbzpMj3RXv72-41" value="$$&#xa;k=\psi (C)&#xa;$$" style="text;whiteSpace=wrap;fontFamily=Times New Roman;" parent="5jRHnxl2lbzpMj3RXv72-1" vertex="1">
          <mxGeometry x="673.5" y="738" width="56.5" height="40" as="geometry" />
        </mxCell>
        <mxCell id="5jRHnxl2lbzpMj3RXv72-42" value="$$&#xa;1\times 1\times C&#xa;$$" style="text;whiteSpace=wrap;align=center;fontFamily=Times New Roman;" parent="5jRHnxl2lbzpMj3RXv72-1" vertex="1">
          <mxGeometry x="738" y="896" width="50" height="40" as="geometry" />
        </mxCell>
        <mxCell id="5jRHnxl2lbzpMj3RXv72-43" value="$$&#xa;\sigma &#xa;$$" style="text;whiteSpace=wrap;fontFamily=Times New Roman;" parent="5jRHnxl2lbzpMj3RXv72-1" vertex="1">
          <mxGeometry x="720" y="803" width="20" height="40" as="geometry" />
        </mxCell>
        <mxCell id="5jRHnxl2lbzpMj3RXv72-53" value="" style="rounded=0;whiteSpace=wrap;html=1;strokeWidth=0.5;fillColor=none;fontColor=#333333;strokeColor=#666666;movable=1;resizable=1;rotatable=1;deletable=1;editable=1;locked=0;connectable=1;fontFamily=Times New Roman;" parent="5jRHnxl2lbzpMj3RXv72-1" vertex="1">
          <mxGeometry x="630" y="778" width="20" height="120" as="geometry" />
        </mxCell>
        <mxCell id="5jRHnxl2lbzpMj3RXv72-54" value="" style="rounded=0;whiteSpace=wrap;html=1;strokeWidth=0.5;movable=1;resizable=1;rotatable=1;deletable=1;editable=1;locked=0;connectable=1;fillColor=none;fontColor=#333333;strokeColor=#666666;fontFamily=Times New Roman;" parent="5jRHnxl2lbzpMj3RXv72-1" vertex="1">
          <mxGeometry x="690" y="778" width="20" height="120" as="geometry" />
        </mxCell>
        <mxCell id="LbHlUrn35ubP1hXEGvvB-7" style="edgeStyle=orthogonalEdgeStyle;rounded=0;orthogonalLoop=1;jettySize=auto;html=1;endArrow=blockThin;endFill=1;entryX=0.5;entryY=1;entryDx=0;entryDy=0;fontFamily=Times New Roman;" parent="5jRHnxl2lbzpMj3RXv72-1" target="LbHlUrn35ubP1hXEGvvB-9" edge="1">
          <mxGeometry relative="1" as="geometry">
            <mxPoint x="540" y="770" as="sourcePoint" />
            <mxPoint x="820" y="861" as="targetPoint" />
            <Array as="points">
              <mxPoint x="540" y="930" />
              <mxPoint x="808" y="930" />
            </Array>
          </mxGeometry>
        </mxCell>
        <mxCell id="LbHlUrn35ubP1hXEGvvB-26" style="edgeStyle=orthogonalEdgeStyle;rounded=0;orthogonalLoop=1;jettySize=auto;html=1;entryX=0.5;entryY=1;entryDx=0;entryDy=0;endArrow=blockThin;endFill=1;fontFamily=Times New Roman;" parent="5jRHnxl2lbzpMj3RXv72-1" source="LbHlUrn35ubP1hXEGvvB-9" target="LbHlUrn35ubP1hXEGvvB-11" edge="1">
          <mxGeometry relative="1" as="geometry">
            <Array as="points">
              <mxPoint x="848" y="840" />
            </Array>
          </mxGeometry>
        </mxCell>
        <mxCell id="LbHlUrn35ubP1hXEGvvB-9" value="&lt;font style=&quot;font-size: 10px;&quot;&gt;mul&lt;/font&gt;" style="rounded=0;whiteSpace=wrap;html=1;fillColor=#f8cecc;strokeColor=#b85450;fontFamily=Times New Roman;" parent="5jRHnxl2lbzpMj3RXv72-1" vertex="1">
          <mxGeometry x="788" y="829" width="40" height="18" as="geometry" />
        </mxCell>
        <mxCell id="LbHlUrn35ubP1hXEGvvB-28" style="edgeStyle=orthogonalEdgeStyle;rounded=0;orthogonalLoop=1;jettySize=auto;html=1;entryX=0;entryY=0.5;entryDx=0;entryDy=0;endArrow=blockThin;endFill=1;fontFamily=Times New Roman;" parent="5jRHnxl2lbzpMj3RXv72-1" source="LbHlUrn35ubP1hXEGvvB-11" target="LbHlUrn35ubP1hXEGvvB-17" edge="1">
          <mxGeometry relative="1" as="geometry" />
        </mxCell>
        <mxCell id="LbHlUrn35ubP1hXEGvvB-11" value="&lt;font style=&quot;font-size: 10px;&quot;&gt;mul&lt;/font&gt;" style="rounded=0;whiteSpace=wrap;html=1;fillColor=#f8cecc;strokeColor=#b85450;fontFamily=Times New Roman;" parent="5jRHnxl2lbzpMj3RXv72-1" vertex="1">
          <mxGeometry x="828" y="761" width="40" height="18" as="geometry" />
        </mxCell>
        <mxCell id="LbHlUrn35ubP1hXEGvvB-16" value="" style="group;align=center;fontFamily=Times New Roman;" parent="5jRHnxl2lbzpMj3RXv72-1" vertex="1" connectable="0">
          <mxGeometry x="900" y="710" width="90" height="162" as="geometry" />
        </mxCell>
        <mxCell id="LbHlUrn35ubP1hXEGvvB-17" value="" style="rounded=0;whiteSpace=wrap;html=1;fillColor=#d5e8d4;strokeColor=#82b366;fontFamily=Times New Roman;" parent="LbHlUrn35ubP1hXEGvvB-16" vertex="1">
          <mxGeometry width="10" height="120" as="geometry" />
        </mxCell>
        <mxCell id="LbHlUrn35ubP1hXEGvvB-18" value="" style="rounded=0;whiteSpace=wrap;html=1;fillColor=#f8cecc;strokeColor=#b85450;fontFamily=Times New Roman;" parent="LbHlUrn35ubP1hXEGvvB-16" vertex="1">
          <mxGeometry x="20" width="10" height="120" as="geometry" />
        </mxCell>
        <mxCell id="LbHlUrn35ubP1hXEGvvB-19" value="" style="rounded=0;whiteSpace=wrap;html=1;fillColor=#fff2cc;strokeColor=#d6b656;fontFamily=Times New Roman;" parent="LbHlUrn35ubP1hXEGvvB-16" vertex="1">
          <mxGeometry x="40" width="10" height="120" as="geometry" />
        </mxCell>
        <mxCell id="LbHlUrn35ubP1hXEGvvB-20" value="" style="rounded=0;whiteSpace=wrap;html=1;fillColor=#e1d5e7;strokeColor=#9673a6;fontFamily=Times New Roman;" parent="LbHlUrn35ubP1hXEGvvB-16" vertex="1">
          <mxGeometry x="80" width="10" height="120" as="geometry" />
        </mxCell>
        <mxCell id="LbHlUrn35ubP1hXEGvvB-21" value="" style="endArrow=none;dashed=1;html=1;dashPattern=1 3;strokeWidth=2;rounded=0;fontFamily=Times New Roman;" parent="LbHlUrn35ubP1hXEGvvB-16" edge="1">
          <mxGeometry width="50" height="50" relative="1" as="geometry">
            <mxPoint x="57" y="59.860000000000014" as="sourcePoint" />
            <mxPoint x="77" y="59.860000000000014" as="targetPoint" />
          </mxGeometry>
        </mxCell>
        <mxCell id="LbHlUrn35ubP1hXEGvvB-22" value="$$&#xa;H\times W\times C&#xa;$$" style="text;whiteSpace=wrap;align=center;fontFamily=Times New Roman;" parent="LbHlUrn35ubP1hXEGvvB-16" vertex="1">
          <mxGeometry y="122" width="90" height="40" as="geometry" />
        </mxCell>
        <mxCell id="LbHlUrn35ubP1hXEGvvB-23" value="$$X$$" style="text;whiteSpace=wrap;align=center;fontFamily=Times New Roman;" parent="5jRHnxl2lbzpMj3RXv72-1" vertex="1">
          <mxGeometry x="440" y="670" width="90" height="40" as="geometry" />
        </mxCell>
        <mxCell id="LbHlUrn35ubP1hXEGvvB-24" value="$$\tilde{X}$$" style="text;whiteSpace=wrap;align=center;fontFamily=Times New Roman;" parent="5jRHnxl2lbzpMj3RXv72-1" vertex="1">
          <mxGeometry x="900" y="670" width="90" height="40" as="geometry" />
        </mxCell>
        <mxCell id="LbHlUrn35ubP1hXEGvvB-29" value="&lt;font style=&quot;font-size: 10px;&quot;&gt;1×1&lt;br&gt;down&lt;br&gt;&lt;/font&gt;" style="rounded=0;whiteSpace=wrap;html=1;fillColor=#d5e8d4;strokeColor=#82b366;fontFamily=Times New Roman;" parent="5jRHnxl2lbzpMj3RXv72-1" vertex="1">
          <mxGeometry x="609" y="680" width="40" height="40" as="geometry" />
        </mxCell>
      </root>
    </mxGraphModel>
  </diagram>
</mxfile>
